<?xml version="1.0" encoding="utf-8"?>
<!-- Generator: Adobe Illustrator 16.0.0, SVG Export Plug-In . SVG Version: 6.00 Build 0)  -->
<!DOCTYPE svg PUBLIC "-//W3C//DTD SVG 1.1//EN" "http://www.w3.org/Graphics/SVG/1.1/DTD/svg11.dtd">
<svg version="1.1" id="Layer_1" xmlns="http://www.w3.org/2000/svg" xmlns:xlink="http://www.w3.org/1999/xlink" x="0px" y="0px"
	 width="200px" height="200px" viewBox="0 0 200 200" enable-background="new 0 0 200 200" xml:space="preserve">
<path fill="#FFFFFF" stroke="#010101" stroke-width="2" stroke-miterlimit="10" d="M131.966,14.967h-63.86
	c-35.921,0-64.857,30.207-64.857,67.705l0,0c0,37.498,28.937,67.704,64.857,67.704h7.484c-2.994,11.458-9.479,29.165-24.946,34.373
	c0,0,41.908-7.812,57.375-34.373h23.946c35.921,0,64.858-30.206,64.858-67.704l0,0C196.824,45.174,167.887,14.967,131.966,14.967z"
	/>
<path fill="#4E77BB" d="M109.666,53.646c2.604,0,5.729,0,8.332,0c0.521,0,0.521,0,1.043,0V39.063c-1.562,0-3.125-0.521-4.688-0.521
	c-3.125,0-5.729-0.521-8.854,0c-4.168,0-8.334,1.041-11.979,3.646c-4.167,3.124-6.25,7.291-7.291,11.979c0,2.083,0,4.166,0,6.249
	c0,3.125,0,6.771,0,9.896v1.042H72.167v16.145h14.062v41.144h16.665V88.019h13.541c0.521-5.208,1.562-10.937,2.084-16.145
	c-1.041,0-2.084,0-3.125,0c-4.166,0-13.02,0-13.02,0s0-7.812,0-11.458C103.416,55.208,106.02,53.646,109.666,53.646z"/>
</svg>
