<?xml version="1.0" encoding="utf-8"?>
<!-- Generator: Adobe Illustrator 16.0.0, SVG Export Plug-In . SVG Version: 6.00 Build 0)  -->
<!DOCTYPE svg PUBLIC "-//W3C//DTD SVG 1.1//EN" "http://www.w3.org/Graphics/SVG/1.1/DTD/svg11.dtd">
<svg version="1.1" id="Layer_1" xmlns="http://www.w3.org/2000/svg" xmlns:xlink="http://www.w3.org/1999/xlink" x="0px" y="0px"
	 width="200px" height="200px" viewBox="0 0 200 200" enable-background="new 0 0 200 200" xml:space="preserve">
<path fill="#FFFFFF" stroke="#010101" stroke-width="2" stroke-miterlimit="10" d="M132.107,14.967H68.253
	c-35.918,0-64.852,30.207-64.852,67.705l0,0c0,37.498,28.934,67.704,64.852,67.704h7.483c-2.993,11.458-9.479,29.165-24.943,34.373
	c0,0,41.904-7.812,57.369-34.373h23.945c35.918,0,64.853-30.206,64.853-67.704l0,0C196.96,45.174,168.025,14.967,132.107,14.967z"/>
<path fill="#41BFEF" d="M82.732,101.557c-9.895-0.521-16.145-7.292-17.707-13.02c2.604,0.521,5.208,0.521,8.333,0c0,0,0,0,0.521,0
	c-5.208-1.042-9.374-4.166-12.499-8.854c-2.083-3.125-2.604-6.25-2.604-9.896c2.604,1.562,5.209,2.083,8.333,2.083
	c-4.166-3.124-6.771-6.771-7.812-11.457c-1.042-4.688-0.521-9.375,2.083-13.541c10.416,11.979,23.437,18.749,39.061,19.79
	c0-0.521,0-1.562-0.521-2.083c-0.521-4.688,0.521-8.854,2.604-12.499c3.125-4.688,7.291-7.812,13.021-8.854
	c6.249-1.042,11.979,0.521,16.665,5.208c0.521,0.521,0.521,0.521,1.042,0.521c4.166-1.042,7.812-2.083,10.937-4.166l0,0l0,0
	c-1.562,4.687-4.166,7.812-8.333,10.416c3.646-0.521,7.292-1.562,10.417-2.604l0,0c-0.521,1.042-1.562,2.083-2.084,2.604
	c-2.083,2.604-4.166,4.687-6.771,6.771l-0.521,0.521c0,2.604,0,5.729-0.521,8.333c-0.521,5.729-2.604,11.457-4.688,17.187
	c-2.604,5.729-6.25,10.416-10.416,15.103c-7.291,7.291-16.146,12.5-26.04,14.582c-3.646,0.521-6.771,1.043-10.416,1.043
	c-10.938,0.52-21.354-2.605-30.207-8.334c0,0,0,0-0.521-0.52c6.771,0.52,13.02,0,19.27-2.605
	C77.004,105.723,80.129,103.641,82.732,101.557z"/>
</svg>
